<svg xmlns="http://www.w3.org/2000/svg" xmlns:xlink="http://www.w3.org/1999/xlink" width="500" zoomAndPan="magnify" viewBox="0 0 375 374.999991" height="500" preserveAspectRatio="xMidYMid meet" version="1.0"><defs><clipPath id="968369ec54"><path d="M 61.171875 0 L 262 0 L 262 250 L 61.171875 250 Z M 61.171875 0 " clip-rule="nonzero"/></clipPath><clipPath id="de46a4bd3e"><path d="M 113 125 L 313.921875 125 L 313.921875 250 L 113 250 Z M 113 125 " clip-rule="nonzero"/></clipPath></defs><g clip-path="url(#968369ec54)"><path fill="#3b3b3b" d="M 261.96875 64.632812 C 261.441406 81.066406 254.5625 95.894531 243.699219 106.742188 C 232.394531 118.046875 216.773438 125.039062 199.515625 125.039062 L 116.242188 125.039062 C 114.503906 125.039062 113.09375 126.445312 113.09375 128.183594 L 113.09375 249.96875 L 64.316406 249.96875 C 62.578125 249.96875 61.167969 248.558594 61.167969 246.824219 L 61.167969 3.253906 C 61.167969 1.515625 62.578125 0.105469 64.316406 0.105469 L 198.710938 0.105469 C 234.21875 0.105469 263.113281 29.15625 261.96875 64.632812 " fill-opacity="1" fill-rule="nonzero"/></g><g clip-path="url(#de46a4bd3e)"><path fill="#ededed" d="M 313.925781 187.5 L 313.925781 187.511719 C 313.925781 188.007812 313.917969 188.507812 313.90625 188.996094 L 313.898438 189.210938 C 313.898438 189.320312 313.898438 189.417969 313.894531 189.519531 C 313.886719 189.625 313.886719 189.726562 313.878906 189.828125 C 313.875 190.035156 313.863281 190.234375 313.855469 190.445312 L 313.835938 190.804688 C 313.816406 191.167969 313.800781 191.539062 313.765625 191.90625 L 313.597656 193.949219 C 313.554688 194.351562 313.507812 194.75 313.460938 195.144531 L 311.015625 206.386719 C 310.898438 206.769531 310.769531 207.148438 310.636719 207.53125 L 310.242188 208.679688 C 310.148438 208.933594 310.058594 209.179688 309.960938 209.433594 C 309.839844 209.761719 309.71875 210.078125 309.589844 210.402344 L 309.128906 211.539062 C 309.023438 211.789062 308.914062 212.046875 308.800781 212.300781 C 308.699219 212.539062 308.59375 212.777344 308.484375 213.011719 L 308.273438 213.484375 C 308.144531 213.773438 308.011719 214.058594 307.875 214.339844 C 307.777344 214.554688 307.671875 214.765625 307.566406 214.972656 L 306.9375 216.226562 C 306.804688 216.488281 306.667969 216.734375 306.535156 216.988281 L 306.242188 217.53125 C 306.089844 217.8125 305.929688 218.089844 305.769531 218.367188 L 305.507812 218.820312 C 305.382812 219.03125 305.265625 219.246094 305.132812 219.460938 C 304.96875 219.746094 304.800781 220.027344 304.621094 220.304688 L 303.980469 221.316406 C 303.742188 221.6875 303.5 222.050781 303.25 222.417969 C 302.988281 222.816406 302.722656 223.203125 302.445312 223.589844 L 302.347656 223.714844 C 302.148438 224.003906 301.933594 224.292969 301.71875 224.582031 L 301.457031 224.945312 C 300.910156 225.671875 300.351562 226.386719 299.773438 227.085938 L 298.6875 228.378906 C 298.359375 228.753906 298.023438 229.125 297.691406 229.496094 C 297.019531 230.238281 296.328125 230.960938 295.625 231.667969 C 294.917969 232.371094 294.195312 233.0625 293.449219 233.738281 C 293.085938 234.070312 292.707031 234.402344 292.332031 234.730469 C 291.574219 235.386719 290.808594 236.019531 290.019531 236.636719 C 289.625 236.953125 289.226562 237.253906 288.824219 237.554688 C 288.425781 237.851562 288.019531 238.144531 287.609375 238.4375 C 286.796875 239.019531 285.96875 239.582031 285.117188 240.121094 C 284.695312 240.394531 284.269531 240.65625 283.839844 240.921875 C 283.410156 241.179688 282.984375 241.433594 282.546875 241.683594 C 282.542969 241.683594 282.539062 241.6875 282.539062 241.6875 C 282.101562 241.941406 281.667969 242.1875 281.230469 242.425781 C 280.78125 242.664062 280.332031 242.894531 279.886719 243.128906 C 279.441406 243.355469 278.984375 243.582031 278.535156 243.804688 C 278.074219 244.023438 277.613281 244.238281 277.15625 244.445312 C 276.695312 244.652344 276.230469 244.851562 275.765625 245.054688 C 274.828125 245.453125 273.882812 245.820312 272.925781 246.171875 C 272.449219 246.34375 271.960938 246.515625 271.484375 246.679688 C 271.019531 246.835938 270.554688 246.984375 270.089844 247.140625 C 270.054688 247.144531 270.03125 247.152344 270.003906 247.164062 C 268.578125 247.601562 267.128906 247.992188 265.664062 248.335938 C 265.589844 248.351562 265.519531 248.371094 265.445312 248.390625 C 264.976562 248.496094 264.503906 248.597656 264.03125 248.691406 C 263.523438 248.796875 263.011719 248.894531 262.503906 248.988281 C 261.863281 249.101562 261.21875 249.207031 260.570312 249.292969 C 260.179688 249.355469 259.789062 249.410156 259.398438 249.460938 C 258.878906 249.527344 258.355469 249.585938 257.828125 249.640625 C 256.253906 249.800781 254.660156 249.898438 253.046875 249.945312 C 252.515625 249.957031 251.980469 249.960938 251.441406 249.960938 L 196.550781 249.960938 C 196.511719 249.960938 196.476562 249.960938 196.4375 249.96875 L 113.09375 249.96875 L 113.09375 128.183594 C 113.09375 126.445312 114.503906 125.039062 116.242188 125.039062 L 250.640625 125.039062 C 283.828125 125.039062 311.238281 150.410156 313.742188 182.691406 C 313.863281 184.277344 313.925781 185.882812 313.925781 187.5 " fill-opacity="1" fill-rule="nonzero"/></g><path fill="#3b3b3b" d="M 306.328125 374.894531 L 116.242188 374.894531 C 114.503906 374.894531 113.09375 373.484375 113.09375 371.746094 L 113.09375 249.96875 L 196.4375 249.96875 C 193.707031 250.058594 192.363281 253.378906 194.324219 255.335938 L 308.554688 369.519531 C 310.539062 371.503906 309.136719 374.894531 306.328125 374.894531 " fill-opacity="1" fill-rule="nonzero"/></svg>