<svg xmlns="http://www.w3.org/2000/svg" xmlns:xlink="http://www.w3.org/1999/xlink" width="500" zoomAndPan="magnify" viewBox="0 0 375 374.999991" height="500" preserveAspectRatio="xMidYMid meet" version="1.0"><defs><clipPath id="b3d6e5a700"><path d="M 112.5 131.625 L 262.5 131.625 L 262.5 243 L 112.5 243 Z M 112.5 131.625 " clip-rule="nonzero"/></clipPath></defs><g clip-path="url(#b3d6e5a700)"><path fill="#333333" d="M 260.507812 219.472656 C 259.582031 217.757812 258.378906 216.265625 256.898438 215 C 255.421875 213.730469 253.761719 212.769531 251.925781 212.117188 C 250.519531 212.535156 249.097656 212.871094 247.652344 213.125 C 244.449219 213.742188 241.429688 214.324219 238.558594 217.160156 C 235.683594 220 234.691406 222.625 233.640625 225.40625 C 232.992188 227.117188 232.324219 228.882812 231.199219 230.648438 C 231.359375 231.527344 231.617188 232.375 231.96875 233.195312 C 232.535156 234.554688 233.273438 235.8125 234.1875 236.960938 C 235.105469 238.113281 236.160156 239.117188 237.355469 239.976562 C 238.550781 240.832031 239.84375 241.507812 241.226562 242.003906 C 242.613281 242.5 244.039062 242.796875 245.507812 242.894531 C 246.972656 242.992188 248.429688 242.886719 249.867188 242.578125 C 251.304688 242.269531 252.671875 241.773438 253.972656 241.082031 C 255.269531 240.390625 256.449219 239.535156 257.511719 238.515625 C 258.570312 237.492188 259.46875 236.347656 260.210938 235.074219 C 260.390625 234.765625 260.566406 234.453125 260.726562 234.132812 C 261.640625 232.320312 262.183594 230.402344 262.355469 228.378906 C 262.390625 227.933594 262.421875 227.484375 262.421875 227.027344 C 262.425781 224.347656 261.789062 221.828125 260.507812 219.472656 Z M 254.992188 229.253906 C 254.894531 229.601562 254.777344 229.941406 254.636719 230.273438 C 254.496094 230.605469 254.335938 230.929688 254.152344 231.242188 C 253.972656 231.554688 253.773438 231.855469 253.554688 232.144531 C 253.335938 232.429688 253.097656 232.703125 252.84375 232.960938 C 252.59375 233.21875 252.324219 233.460938 252.039062 233.683594 C 251.757812 233.910156 251.460938 234.113281 251.152344 234.300781 C 250.84375 234.488281 250.523438 234.65625 250.191406 234.804688 C 249.863281 234.949219 249.523438 235.074219 249.175781 235.179688 C 248.832031 235.285156 248.480469 235.367188 248.125 235.425781 C 247.765625 235.488281 247.410156 235.523438 247.046875 235.539062 C 246.6875 235.554688 246.324219 235.546875 245.964844 235.519531 C 245.605469 235.488281 245.25 235.433594 244.894531 235.359375 C 244.542969 235.285156 244.195312 235.1875 243.851562 235.070312 C 243.511719 234.953125 243.179688 234.8125 242.855469 234.652344 C 242.53125 234.492188 242.21875 234.3125 241.917969 234.113281 C 241.613281 233.914062 241.328125 233.695312 241.054688 233.457031 C 240.78125 233.222656 240.523438 232.972656 240.277344 232.703125 C 240.035156 232.433594 239.8125 232.152344 239.605469 231.855469 C 239.398438 231.558594 239.210938 231.25 239.042969 230.929688 C 238.875 230.613281 238.726562 230.28125 238.601562 229.945312 C 238.472656 229.605469 238.367188 229.261719 238.285156 228.910156 C 238.203125 228.558594 238.140625 228.203125 238.101562 227.84375 C 238.0625 227.484375 238.046875 227.121094 238.054688 226.761719 C 238.058594 226.398438 238.089844 226.039062 238.140625 225.683594 C 238.191406 225.324219 238.265625 224.972656 238.363281 224.621094 C 238.457031 224.273438 238.574219 223.933594 238.714844 223.601562 C 238.855469 223.265625 239.011719 222.941406 239.191406 222.628906 C 239.371094 222.316406 239.570312 222.015625 239.789062 221.726562 C 240.003906 221.4375 240.238281 221.164062 240.492188 220.902344 C 240.742188 220.644531 241.011719 220.402344 241.292969 220.175781 C 241.574219 219.949219 241.871094 219.742188 242.179688 219.554688 C 242.488281 219.363281 242.804688 219.195312 243.136719 219.046875 C 243.464844 218.898438 243.800781 218.773438 244.148438 218.664062 C 244.492188 218.558594 244.84375 218.476562 245.199219 218.414062 C 245.554688 218.351562 245.914062 218.3125 246.277344 218.292969 C 246.636719 218.277344 246.996094 218.28125 247.359375 218.3125 C 247.71875 218.339844 248.074219 218.390625 248.429688 218.464844 C 248.785156 218.535156 249.132812 218.632812 249.472656 218.746094 C 249.816406 218.863281 250.148438 219.003906 250.472656 219.160156 C 250.796875 219.320312 251.113281 219.5 251.414062 219.695312 C 251.714844 219.894531 252.003906 220.109375 252.28125 220.34375 C 252.554688 220.578125 252.816406 220.828125 253.058594 221.097656 C 253.300781 221.363281 253.527344 221.644531 253.738281 221.941406 C 253.945312 222.234375 254.132812 222.542969 254.304688 222.863281 C 254.472656 223.179688 254.621094 223.507812 254.75 223.847656 C 254.878906 224.183594 254.988281 224.53125 255.070312 224.882812 C 255.15625 225.230469 255.21875 225.585938 255.261719 225.945312 C 255.300781 226.304688 255.320312 226.664062 255.316406 227.027344 C 255.304688 227.78125 255.195312 228.523438 254.992188 229.253906 Z M 239.574219 214.746094 C 240.457031 214.132812 241.402344 213.628906 242.410156 213.238281 C 242.726562 213.113281 243.046875 213 243.367188 212.898438 C 244.644531 212.511719 245.941406 212.207031 247.257812 211.976562 C 247.585938 211.914062 247.917969 211.851562 248.246094 211.785156 C 248.710938 211.695312 249.175781 211.59375 249.644531 211.488281 C 249.839844 211.441406 250.039062 211.398438 250.238281 211.347656 C 251.277344 211.097656 252.285156 210.765625 253.269531 210.347656 C 253.910156 210.078125 254.53125 209.761719 255.128906 209.402344 C 255.382812 209.246094 255.613281 209.09375 255.816406 208.949219 C 256.359375 208.59375 256.835938 208.171875 257.257812 207.675781 C 255.9375 206.699219 254.515625 205.910156 252.988281 205.308594 C 252.863281 205.257812 252.738281 205.203125 252.609375 205.15625 C 251.925781 204.894531 251.230469 204.667969 250.527344 204.480469 C 250.390625 204.445312 250.253906 204.414062 250.117188 204.382812 C 249.375 204.195312 248.621094 204.050781 247.863281 203.953125 C 247.082031 203.859375 246.296875 203.808594 245.511719 203.800781 C 245.359375 203.800781 245.210938 203.792969 245.058594 203.792969 C 244.441406 203.800781 243.820312 203.824219 243.195312 203.886719 C 240.667969 204.140625 238.269531 204.839844 236 205.980469 L 237.300781 204.089844 L 237.941406 203.164062 C 238.558594 202.265625 238.933594 201.277344 239.0625 200.195312 C 239.191406 199.117188 239.0625 198.066406 238.675781 197.046875 L 230.175781 174.765625 L 235.414062 175.597656 C 235.683594 175.640625 235.949219 175.625 236.210938 175.550781 C 236.472656 175.476562 236.707031 175.351562 236.914062 175.175781 C 237.121094 174.996094 237.285156 174.785156 237.398438 174.539062 C 237.511719 174.292969 237.566406 174.03125 237.570312 173.757812 L 237.570312 163.976562 C 237.566406 163.703125 237.511719 163.445312 237.398438 163.199219 C 237.28125 162.949219 237.121094 162.738281 236.914062 162.5625 C 236.707031 162.382812 236.472656 162.257812 236.210938 162.183594 C 235.949219 162.113281 235.683594 162.097656 235.414062 162.136719 L 223.40625 164.050781 C 223.148438 164.089844 222.90625 164.175781 222.679688 164.300781 C 222.453125 164.429688 222.257812 164.589844 222.085938 164.789062 C 221.917969 164.984375 221.789062 165.207031 221.699219 165.449219 C 221.609375 165.695312 221.566406 165.945312 221.566406 166.207031 L 221.566406 168.007812 C 221.382812 167.972656 221.195312 167.945312 221.007812 167.9375 L 211.433594 167.816406 C 210.757812 167.789062 210.203125 167.515625 209.777344 166.988281 L 201.109375 156.3125 C 196.316406 150.4375 188.132812 152.265625 186.59375 159.691406 L 182.085938 176.625 C 181.941406 177.316406 181.863281 178.015625 181.847656 178.71875 C 181.835938 179.425781 181.886719 180.125 182 180.820312 C 182.117188 181.515625 182.296875 182.195312 182.539062 182.855469 C 182.777344 183.519531 183.078125 184.152344 183.441406 184.757812 C 183.800781 185.367188 184.210938 185.933594 184.679688 186.464844 C 185.144531 186.992188 185.652344 187.476562 186.207031 187.910156 C 186.765625 188.34375 187.355469 188.722656 187.980469 189.046875 C 188.605469 189.375 189.257812 189.636719 189.929688 189.839844 L 162.105469 189.839844 C 161.96875 189.84375 161.835938 189.867188 161.710938 189.921875 C 161.585938 189.972656 161.472656 190.046875 161.375 190.144531 C 161.28125 190.242188 161.207031 190.351562 161.152344 190.476562 C 161.101562 190.605469 161.074219 190.734375 161.074219 190.871094 L 161.074219 194.742188 C 161.074219 194.878906 161.101562 195.011719 161.152344 195.136719 C 161.207031 195.265625 161.28125 195.375 161.378906 195.472656 C 161.472656 195.566406 161.585938 195.640625 161.710938 195.695312 C 161.835938 195.746094 161.96875 195.773438 162.105469 195.773438 L 200.675781 195.773438 C 200.8125 195.773438 200.945312 195.746094 201.070312 195.695312 C 201.195312 195.644531 201.308594 195.566406 201.40625 195.472656 C 201.5 195.375 201.574219 195.265625 201.628906 195.136719 C 201.679688 195.011719 201.707031 194.878906 201.707031 194.742188 L 201.707031 191.679688 L 206.964844 192.433594 L 202.804688 210.949219 C 202.753906 211.222656 202.734375 211.5 202.738281 211.78125 C 202.746094 212.058594 202.777344 212.335938 202.835938 212.609375 C 202.894531 212.882812 202.980469 213.144531 203.089844 213.402344 C 203.203125 213.65625 203.335938 213.902344 203.496094 214.132812 C 203.652344 214.359375 203.832031 214.574219 204.03125 214.769531 C 204.230469 214.964844 204.449219 215.136719 204.679688 215.289062 C 204.914062 215.445312 205.160156 215.574219 205.417969 215.675781 C 205.679688 215.78125 205.945312 215.863281 206.21875 215.914062 C 206.492188 215.96875 206.769531 215.992188 207.046875 215.992188 C 207.328125 215.992188 207.605469 215.964844 207.878906 215.910156 C 208.152344 215.855469 208.417969 215.773438 208.675781 215.667969 C 208.933594 215.558594 209.179688 215.429688 209.410156 215.273438 C 209.644531 215.121094 209.859375 214.945312 210.058594 214.75 C 210.253906 214.550781 210.433594 214.339844 210.589844 214.109375 C 210.746094 213.875 210.878906 213.632812 210.988281 213.375 C 211.097656 213.117188 211.179688 212.851562 211.238281 212.582031 L 216.378906 192.148438 C 216.484375 191.65625 216.539062 191.160156 216.546875 190.65625 C 216.554688 190.15625 216.507812 189.65625 216.417969 189.164062 C 216.324219 188.667969 216.183594 188.1875 215.996094 187.722656 C 215.808594 187.257812 215.574219 186.8125 215.300781 186.394531 C 215.023438 185.972656 214.710938 185.582031 214.355469 185.226562 C 214.003906 184.867188 213.617188 184.550781 213.203125 184.269531 C 212.785156 183.988281 212.34375 183.75 211.882812 183.554688 C 211.417969 183.359375 210.9375 183.214844 210.445312 183.113281 C 206.117188 182.246094 200.738281 181.195312 197.9375 180.652344 C 197.6875 180.605469 197.457031 180.507812 197.25 180.367188 C 197.039062 180.222656 196.863281 180.046875 196.726562 179.835938 C 196.585938 179.621094 196.496094 179.390625 196.453125 179.140625 C 196.40625 178.890625 196.414062 178.640625 196.46875 178.394531 L 199.082031 166.78125 L 203.976562 172.578125 C 204.804688 173.597656 205.820312 174.378906 207.015625 174.925781 C 208.214844 175.46875 209.472656 175.714844 210.785156 175.667969 L 221.007812 175.109375 C 221.539062 175.089844 222.035156 174.960938 222.507812 174.71875 L 226.171875 195.117188 C 226.429688 196.558594 226.460938 198.003906 226.261719 199.457031 C 226.0625 200.910156 225.644531 202.296875 225.007812 203.617188 L 219.886719 214.222656 C 219.605469 214.808594 219.25 215.34375 218.816406 215.824219 C 218.382812 216.308594 217.890625 216.722656 217.34375 217.070312 C 216.792969 217.414062 216.207031 217.675781 215.582031 217.855469 C 214.960938 218.035156 214.324219 218.125 213.675781 218.125 L 203.96875 218.125 C 203.476562 218.125 202.992188 218.070312 202.511719 217.964844 C 202.03125 217.855469 201.570312 217.695312 201.125 217.488281 C 200.683594 217.277344 200.265625 217.019531 199.878906 216.71875 C 199.492188 216.417969 199.144531 216.078125 198.832031 215.695312 C 198.519531 215.316406 198.253906 214.910156 198.03125 214.46875 C 197.8125 214.03125 197.640625 213.574219 197.519531 213.097656 C 197.402344 212.621094 197.335938 212.136719 197.324219 211.648438 C 197.308594 211.15625 197.351562 210.667969 197.445312 210.1875 L 200.003906 197.273438 L 163.246094 197.273438 C 162.730469 197.269531 162.253906 197.40625 161.816406 197.675781 C 161.46875 197.890625 161.007812 198.191406 160.453125 198.570312 C 160.148438 198.78125 159.808594 198.890625 159.433594 198.890625 L 143.722656 198.890625 C 143.472656 198.890625 143.230469 198.941406 142.996094 199.035156 C 142.765625 199.132812 142.558594 199.269531 142.382812 199.449219 C 142.203125 199.625 142.066406 199.832031 141.972656 200.0625 C 141.875 200.296875 141.828125 200.535156 141.828125 200.789062 C 141.828125 201.039062 141.875 201.28125 141.972656 201.515625 C 142.066406 201.746094 142.203125 201.953125 142.382812 202.128906 C 142.558594 202.308594 142.765625 202.445312 142.996094 202.539062 C 143.230469 202.636719 143.472656 202.683594 143.722656 202.683594 L 161.667969 202.683594 C 161.921875 202.683594 162.164062 202.734375 162.394531 202.828125 C 162.628906 202.925781 162.832031 203.0625 163.011719 203.242188 C 163.1875 203.417969 163.324219 203.625 163.421875 203.855469 C 163.515625 204.089844 163.566406 204.328125 163.566406 204.582031 C 163.566406 204.832031 163.515625 205.074219 163.421875 205.308594 C 163.324219 205.539062 163.1875 205.746094 163.011719 205.921875 C 162.832031 206.101562 162.628906 206.238281 162.394531 206.332031 C 162.164062 206.429688 161.921875 206.476562 161.667969 206.476562 L 116.433594 206.476562 C 116.183594 206.476562 115.941406 206.527344 115.707031 206.621094 C 115.476562 206.71875 115.269531 206.855469 115.09375 207.035156 C 114.914062 207.210938 114.777344 207.417969 114.679688 207.648438 C 114.585938 207.882812 114.535156 208.121094 114.535156 208.375 C 114.535156 208.625 114.585938 208.867188 114.679688 209.101562 C 114.777344 209.332031 114.914062 209.539062 115.09375 209.714844 C 115.269531 209.894531 115.476562 210.03125 115.707031 210.125 C 115.941406 210.222656 116.183594 210.269531 116.433594 210.269531 L 152.660156 210.269531 C 152.910156 210.269531 153.15625 210.316406 153.390625 210.410156 C 153.625 210.503906 153.832031 210.640625 154.011719 210.820312 C 154.191406 210.996094 154.332031 211.203125 154.429688 211.4375 C 154.527344 211.671875 154.574219 211.914062 154.574219 212.167969 C 154.574219 212.421875 154.527344 212.664062 154.429688 212.898438 C 154.332031 213.132812 154.191406 213.335938 154.011719 213.515625 C 153.832031 213.691406 153.625 213.828125 153.390625 213.925781 C 153.15625 214.019531 152.910156 214.066406 152.660156 214.0625 L 129.429688 214.0625 C 129.175781 214.0625 128.9375 214.113281 128.703125 214.207031 C 128.472656 214.304688 128.265625 214.441406 128.089844 214.621094 C 127.910156 214.796875 127.773438 215.003906 127.675781 215.234375 C 127.582031 215.464844 127.53125 215.707031 127.53125 215.960938 C 127.53125 216.210938 127.582031 216.453125 127.675781 216.6875 C 127.773438 216.917969 127.910156 217.125 128.089844 217.300781 C 128.265625 217.480469 128.472656 217.617188 128.703125 217.710938 C 128.9375 217.808594 129.175781 217.855469 129.429688 217.855469 L 145.109375 217.855469 C 143.96875 221.140625 143.394531 224.523438 143.398438 228 L 149.570312 228 C 149.570312 228.039062 149.5625 228.074219 149.5625 228.113281 C 149.5625 228.535156 149.589844 228.953125 149.625 229.371094 C 149.769531 231.105469 150.207031 232.761719 150.9375 234.339844 C 151.671875 235.917969 152.652344 237.324219 153.886719 238.550781 C 154.28125 238.953125 154.699219 239.328125 155.136719 239.679688 C 155.574219 240.03125 156.03125 240.359375 156.507812 240.65625 C 156.984375 240.957031 157.476562 241.226562 157.980469 241.472656 C 158.488281 241.714844 159.007812 241.929688 159.539062 242.109375 C 160.070312 242.292969 160.609375 242.445312 161.160156 242.570312 C 161.710938 242.691406 162.261719 242.78125 162.824219 242.835938 C 163.382812 242.894531 163.941406 242.921875 164.503906 242.914062 C 165.066406 242.90625 165.628906 242.867188 166.183594 242.796875 C 166.742188 242.726562 167.292969 242.625 167.839844 242.488281 C 168.386719 242.355469 168.921875 242.191406 169.449219 241.996094 C 169.976562 241.800781 170.492188 241.574219 170.992188 241.320312 C 171.492188 241.0625 171.976562 240.78125 172.445312 240.46875 C 172.914062 240.160156 173.363281 239.824219 173.796875 239.460938 C 174.226562 239.097656 174.632812 238.714844 175.019531 238.304688 C 175.40625 237.894531 175.765625 237.464844 176.101562 237.015625 C 176.4375 236.5625 176.746094 236.097656 177.03125 235.609375 C 177.199219 235.320312 177.363281 235.03125 177.511719 234.730469 C 178.363281 233.039062 178.867188 231.253906 179.027344 229.371094 C 179.0625 228.953125 179.09375 228.535156 179.09375 228.113281 C 179.09375 228.074219 179.085938 228.039062 179.085938 228 L 215.121094 228 C 216 227.992188 216.863281 227.878906 217.714844 227.664062 C 218.5625 227.449219 219.378906 227.136719 220.152344 226.730469 C 220.929688 226.320312 221.648438 225.828125 222.308594 225.25 C 222.96875 224.671875 223.550781 224.023438 224.054688 223.308594 L 224.671875 222.414062 C 224.539062 223.765625 224.539062 225.121094 224.671875 226.472656 C 224.730469 227.066406 224.828125 227.644531 224.933594 228.21875 C 225.257812 229.972656 225.804688 231.660156 226.566406 233.277344 C 226.820312 233.167969 227.066406 233.035156 227.300781 232.886719 C 227.671875 232.65625 228.023438 232.398438 228.355469 232.117188 C 228.804688 231.734375 229.214844 231.308594 229.582031 230.847656 C 229.796875 230.578125 230 230.296875 230.1875 230.003906 C 230.429688 229.621094 230.644531 229.234375 230.851562 228.851562 C 232.984375 224.828125 233.21875 220.742188 237.710938 216.304688 C 238.289062 215.730469 238.910156 215.214844 239.574219 214.746094 Z M 172.46875 228.113281 C 172.464844 228.640625 172.40625 229.164062 172.292969 229.683594 C 172.183594 230.203125 172.027344 230.707031 171.816406 231.191406 C 171.609375 231.679688 171.355469 232.140625 171.058594 232.582031 C 170.761719 233.019531 170.421875 233.421875 170.042969 233.796875 C 169.667969 234.167969 169.257812 234.5 168.816406 234.792969 C 168.371094 235.082031 167.90625 235.332031 167.417969 235.53125 C 166.925781 235.730469 166.421875 235.882812 165.902344 235.988281 C 165.382812 236.089844 164.855469 236.140625 164.328125 236.140625 C 163.796875 236.140625 163.273438 236.089844 162.75 235.988281 C 162.230469 235.882812 161.726562 235.730469 161.234375 235.53125 C 160.746094 235.332031 160.28125 235.082031 159.835938 234.792969 C 159.394531 234.5 158.984375 234.167969 158.609375 233.796875 C 158.230469 233.421875 157.894531 233.019531 157.59375 232.582031 C 157.296875 232.140625 157.042969 231.679688 156.835938 231.191406 C 156.628906 230.707031 156.46875 230.203125 156.359375 229.683594 C 156.25 229.164062 156.191406 228.640625 156.183594 228.113281 C 156.183594 228.074219 156.191406 228.039062 156.191406 228 L 172.460938 228 C 172.460938 228.039062 172.46875 228.074219 172.46875 228.113281 Z M 191.789062 147.566406 C 191.585938 146.042969 191.179688 142.84375 191.222656 142.007812 C 191.492188 136.171875 195.566406 131.621094 202.273438 131.933594 C 202.835938 131.960938 203.390625 132.03125 203.941406 132.144531 C 204.492188 132.261719 205.027344 132.417969 205.550781 132.617188 C 206.078125 132.816406 206.582031 133.058594 207.070312 133.335938 C 207.554688 133.617188 208.015625 133.933594 208.453125 134.289062 C 208.886719 134.644531 209.292969 135.027344 209.667969 135.449219 C 210.042969 135.867188 210.378906 136.3125 210.683594 136.785156 C 210.988281 137.257812 211.25 137.75 211.476562 138.265625 C 211.703125 138.777344 211.882812 139.308594 212.023438 139.851562 L 201.75 139.375 C 201.609375 139.367188 201.472656 139.386719 201.339844 139.433594 C 201.207031 139.484375 201.089844 139.554688 200.984375 139.648438 C 200.878906 139.746094 200.796875 139.855469 200.738281 139.984375 C 200.679688 140.113281 200.644531 140.246094 200.636719 140.386719 L 200.476562 143.867188 C 200.460938 144.199219 200.546875 144.5 200.738281 144.773438 C 200.925781 145.046875 201.179688 145.234375 201.496094 145.339844 L 211.597656 148.625 C 210.960938 150.507812 210.042969 152.238281 208.84375 153.820312 C 208.65625 154.0625 208.414062 154.226562 208.121094 154.3125 C 207.824219 154.394531 207.535156 154.382812 207.246094 154.273438 L 192.664062 148.671875 C 192.425781 148.582031 192.230469 148.4375 192.074219 148.238281 C 191.917969 148.042969 191.820312 147.816406 191.789062 147.566406 Z M 133.09375 169.570312 L 114.488281 169.570312 C 114.21875 169.570312 113.964844 169.515625 113.71875 169.40625 C 113.472656 169.300781 113.261719 169.144531 113.078125 168.945312 C 112.898438 168.746094 112.769531 168.519531 112.683594 168.261719 C 112.601562 168.007812 112.574219 167.746094 112.601562 167.480469 C 112.699219 166.492188 113.605469 165.777344 114.597656 165.777344 L 137.957031 165.777344 C 138.222656 165.777344 138.480469 165.722656 138.726562 165.613281 C 138.972656 165.507812 139.183594 165.351562 139.363281 165.152344 C 139.542969 164.953125 139.675781 164.726562 139.757812 164.46875 C 139.84375 164.214844 139.871094 163.953125 139.84375 163.6875 C 139.742188 162.699219 138.839844 161.984375 137.847656 161.984375 L 119.132812 161.984375 C 118.882812 161.984375 118.640625 161.9375 118.40625 161.839844 C 118.175781 161.746094 117.96875 161.609375 117.792969 161.429688 C 117.613281 161.253906 117.476562 161.046875 117.382812 160.816406 C 117.285156 160.582031 117.238281 160.339844 117.238281 160.089844 C 117.238281 159.839844 117.285156 159.597656 117.382812 159.363281 C 117.476562 159.132812 117.613281 158.925781 117.792969 158.75 C 117.96875 158.570312 118.175781 158.433594 118.40625 158.335938 C 118.640625 158.242188 118.882812 158.191406 119.132812 158.191406 L 137.957031 158.191406 C 138.222656 158.191406 138.480469 158.136719 138.726562 158.03125 C 138.972656 157.921875 139.183594 157.765625 139.363281 157.566406 C 139.542969 157.367188 139.675781 157.140625 139.757812 156.882812 C 139.84375 156.628906 139.871094 156.367188 139.84375 156.101562 C 139.742188 155.113281 138.839844 154.398438 137.847656 154.398438 L 124.769531 154.398438 C 124.503906 154.398438 124.246094 154.34375 124 154.238281 C 123.753906 154.128906 123.542969 153.972656 123.363281 153.773438 C 123.183594 153.574219 123.050781 153.347656 122.96875 153.089844 C 122.882812 152.835938 122.855469 152.574219 122.882812 152.308594 C 122.984375 151.320312 123.886719 150.605469 124.878906 150.605469 L 133.09375 150.605469 L 133.09375 148.429688 C 133.09375 148.179688 133.140625 147.941406 133.234375 147.710938 C 133.332031 147.480469 133.46875 147.277344 133.644531 147.101562 C 133.820312 146.925781 134.023438 146.789062 134.253906 146.691406 C 134.484375 146.597656 134.722656 146.550781 134.972656 146.550781 L 176.9375 146.550781 C 177.183594 146.550781 177.425781 146.597656 177.65625 146.691406 C 177.882812 146.789062 178.085938 146.925781 178.265625 147.101562 C 178.441406 147.277344 178.574219 147.480469 178.671875 147.710938 C 178.765625 147.941406 178.8125 148.179688 178.8125 148.429688 L 178.8125 185.074219 C 178.8125 185.425781 178.746094 185.757812 178.613281 186.082031 C 178.480469 186.402344 178.289062 186.6875 178.042969 186.933594 C 177.796875 187.179688 177.511719 187.371094 177.191406 187.503906 C 176.871094 187.636719 176.535156 187.703125 176.183594 187.703125 L 134.972656 187.703125 C 134.722656 187.703125 134.484375 187.65625 134.253906 187.5625 C 134.023438 187.464844 133.820312 187.332031 133.644531 187.152344 C 133.46875 186.976562 133.332031 186.773438 133.234375 186.542969 C 133.140625 186.316406 133.09375 186.074219 133.09375 185.824219 L 133.09375 173.363281 L 137.957031 173.363281 C 138.222656 173.363281 138.480469 173.308594 138.726562 173.199219 C 138.972656 173.09375 139.183594 172.9375 139.363281 172.738281 C 139.542969 172.539062 139.675781 172.3125 139.757812 172.054688 C 139.84375 171.800781 139.871094 171.539062 139.84375 171.273438 C 139.742188 170.285156 138.839844 169.570312 137.847656 169.570312 Z M 133.09375 169.570312 " fill-opacity="1" fill-rule="nonzero"/></g></svg>