<?xml version="1.0" encoding="UTF-8" standalone="no"?>
<!DOCTYPE svg PUBLIC "-//W3C//DTD SVG 1.1//EN" "http://www.w3.org/Graphics/SVG/1.1/DTD/svg11.dtd">
<svg xmlns="http://www.w3.org/2000/svg" version="1.1" viewBox="0.00 0.00 70.00 115.00">
<g stroke-width="2.00" fill="none" stroke-linecap="butt">
<path stroke="#9e9432" stroke-opacity="0.996" vector-effect="non-scaling-stroke" d="
  M 38.14 20.78
  Q 37.99 20.96 37.71 20.81
  Q 37.52 20.70 37.41 20.50
  Q 37.30 20.28 37.33 20.04
  Q 37.40 19.51 36.89 19.37
  Q 31.12 17.79 26.23 13.39
  A 1.49 1.40 28.3 0 1 25.77 12.01
  Q 25.81 11.81 26.51 11.78
  Q 36.04 11.34 45.68 11.50
  A 0.18 0.17 84.5 0 0 45.85 11.29
  L 45.77 10.87
  Q 45.70 10.53 45.36 10.46
  Q 34.20 8.38 27.18 9.91"
/>
<path stroke="#9e9432" stroke-opacity="0.996" vector-effect="non-scaling-stroke" d="
  M 21.01 12.62
  Q 20.80 12.66 20.58 12.65
  Q 20.08 12.64 19.94 13.11
  Q 19.54 14.45 18.72 15.66
  Q 16.17 19.45 15.81 24.32
  Q 15.11 33.88 23.52 38.07
  Q 30.31 41.46 37.24 45.02
  A 1.11 1.11 0.0 0 0 38.86 44.10
  Q 39.40 35.60 37.03 28.57
  Q 35.71 24.69 32.51 21.39
  Q 27.58 16.30 23.11 12.74
  Q 22.76 12.45 22.23 12.41
  Q 21.76 12.36 21.35 12.53
  A 1.40 1.08 -52.4 0 1 21.01 12.62"
/>
<path stroke="#9e9432" stroke-opacity="0.996" vector-effect="non-scaling-stroke" d="
  M 29.30 33.06
  Q 30.84 35.42 33.42 37.64
  Q 34.12 38.24 33.74 37.40
  Q 31.86 33.28 29.45 28.99
  Q 26.62 23.95 23.92 19.11
  Q 21.63 15.01 22.75 19.57
  Q 23.51 22.70 25.49 26.50
  Q 27.32 30.01 29.30 33.06"
/>
</g>
<path fill="#46594f" fill-opacity="0.988" d="
  M 38.14 20.78
  Q 37.99 20.96 37.71 20.81
  Q 37.52 20.70 37.41 20.50
  Q 37.30 20.28 37.33 20.04
  Q 37.40 19.51 36.89 19.37
  Q 31.12 17.79 26.23 13.39
  A 1.49 1.40 28.3 0 1 25.77 12.01
  Q 25.81 11.81 26.51 11.78
  Q 36.04 11.34 45.68 11.50
  A 0.18 0.17 84.5 0 0 45.85 11.29
  L 45.77 10.87
  Q 45.70 10.53 45.36 10.46
  Q 34.20 8.38 27.18 9.91
  Q 28.75 8.43 30.73 8.54
  Q 31.47 8.58 32.06 8.14
  A 2.07 2.04 -65.5 0 1 33.11 7.74
  Q 41.23 7.02 44.04 7.63
  Q 48.97 8.71 54.57 10.67
  A 0.77 0.76 -68.7 0 1 55.02 11.70
  C 54.74 12.36 54.24 13.10 53.59 13.43
  Q 48.12 16.21 42.28 17.60
  Q 41.88 17.70 41.57 17.98
  Q 40.66 18.82 39.26 18.46
  Q 38.68 18.32 38.42 18.86
  Q 38.08 19.59 38.14 20.78
  Z"
/>
<path fill="#f4ce15" d="
  M 38.14 20.78
  C 38.95 21.79 40.37 22.19 41.29 22.83
  Q 46.69 26.61 49.05 28.69
  C 70.34 47.46 67.95 74.51 56.24 98.30
  C 54.33 102.17 53.18 105.37 52.97 109.78
  Q 52.92 110.96 52.26 112.01
  A 1.35 1.35 0.0 0 1 50.25 112.32
  Q 43.36 106.58 35.87 104.12
  C 29.24 101.94 24.43 98.61 19.75 93.61
  C 11.53 84.82 5.90 74.97 4.23 62.88
  Q 2.36 49.26 7.14 39.79
  Q 11.78 30.59 13.61 23.93
  Q 14.15 21.97 14.37 20.00
  Q 15.21 12.41 23.12 11.48
  A 0.65 0.63 8.7 0 0 23.64 11.11
  L 23.79 10.80
  Q 23.82 10.73 23.89 10.72
  L 27.18 9.91
  Q 34.20 8.38 45.36 10.46
  Q 45.70 10.53 45.77 10.87
  L 45.85 11.29
  A 0.18 0.17 84.5 0 1 45.68 11.50
  Q 36.04 11.34 26.51 11.78
  Q 25.81 11.81 25.77 12.01
  A 1.49 1.40 28.3 0 0 26.23 13.39
  Q 31.12 17.79 36.89 19.37
  Q 37.40 19.51 37.33 20.04
  Q 37.30 20.28 37.41 20.50
  Q 37.52 20.70 37.71 20.81
  Q 37.99 20.96 38.14 20.78
  Z
  M 21.01 12.62
  Q 20.80 12.66 20.58 12.65
  Q 20.08 12.64 19.94 13.11
  Q 19.54 14.45 18.72 15.66
  Q 16.17 19.45 15.81 24.32
  Q 15.11 33.88 23.52 38.07
  Q 30.31 41.46 37.24 45.02
  A 1.11 1.11 0.0 0 0 38.86 44.10
  Q 39.40 35.60 37.03 28.57
  Q 35.71 24.69 32.51 21.39
  Q 27.58 16.30 23.11 12.74
  Q 22.76 12.45 22.23 12.41
  Q 21.76 12.36 21.35 12.53
  A 1.40 1.08 -52.4 0 1 21.01 12.62
  Z"
/>
<path fill="#46594f" fill-opacity="0.988" d="
  M 21.35 12.53
  Q 21.76 12.36 22.23 12.41
  Q 22.76 12.45 23.11 12.74
  Q 27.58 16.30 32.51 21.39
  Q 35.71 24.69 37.03 28.57
  Q 39.40 35.60 38.86 44.10
  A 1.11 1.11 0.0 0 1 37.24 45.02
  Q 30.31 41.46 23.52 38.07
  Q 15.11 33.88 15.81 24.32
  Q 16.17 19.45 18.72 15.66
  Q 19.54 14.45 19.94 13.11
  Q 20.08 12.64 20.58 12.65
  Q 20.80 12.66 21.01 12.62
  A 1.40 1.08 -52.4 0 0 21.35 12.53
  Z
  M 29.30 33.06
  Q 30.84 35.42 33.42 37.64
  Q 34.12 38.24 33.74 37.40
  Q 31.86 33.28 29.45 28.99
  Q 26.62 23.95 23.92 19.11
  Q 21.63 15.01 22.75 19.57
  Q 23.51 22.70 25.49 26.50
  Q 27.32 30.01 29.30 33.06
  Z"
/>
<path fill="#f4ce15" d="
  M 25.49 26.50
  Q 23.51 22.70 22.75 19.57
  Q 21.63 15.01 23.92 19.11
  Q 26.62 23.95 29.45 28.99
  Q 31.86 33.28 33.74 37.40
  Q 34.12 38.24 33.42 37.64
  Q 30.84 35.42 29.30 33.06
  Q 27.32 30.01 25.49 26.50
  Z"
/>
</svg>
